<svg id="Layer_1" enable-background="new 0 0 511.363 511.363" height="512" viewBox="0 0 511.363 511.363" width="512" xmlns="http://www.w3.org/2000/svg"><path d="m462.659 143.549-197.705-140.589c-5.551-3.947-12.994-3.947-18.545 0l-197.705 140.589c-4.221 3.001-6.728 7.86-6.728 13.04 0 150.842 77.122 297.265 207.366 353.464 4.045 1.746 8.633 1.746 12.678 0 130.654-56.376 207.366-203.171 207.366-353.464 0-5.18-2.506-10.039-6.727-13.04z" fill="#80b9ed"/><path d="m462.659 143.549-197.705-140.589c-5.551-3.947-12.994-3.947-18.545 0l-197.705 140.589c-4.221 3.001-6.728 7.86-6.728 13.04 0 35.078 4.006 69.489 11.802 102.517 38.137 23.838 103.208 45.476 189.12.404 84.626-44.397 167.51-34.168 218.78-19.722 5.096-27.05 7.708-54.907 7.708-83.199 0-5.18-2.506-10.039-6.727-13.04z" fill="#8bc4ff"/><path d="m231.53 113.443c31.771 27.937 108.937 14.962 180.377-5.984l-146.953-104.499c-5.551-3.947-12.994-3.947-18.545 0l-113.71 80.86c39.384 2.005 76.524 10.008 98.831 29.623z" fill="#a2d0f9"/><path d="m346.14 206.52-52.592-7.642-23.52-47.656c-5.859-11.871-22.835-11.874-28.695 0l-23.52 47.656-52.592 7.642c-13.097 1.904-18.351 18.047-8.867 27.291l38.056 37.096-8.984 52.379c-2.236 13.043 11.492 23.031 23.215 16.867l47.04-24.73c51.75 27.207 49.173 26.568 54.483 26.568 9.833 0 17.461-8.851 15.771-18.705l-8.984-52.379 38.056-37.096c9.479-9.238 4.239-25.386-8.867-27.291z" fill="#a2d0f9"/><g fill="#2e58ff"><path d="m462.659 143.549-197.705-140.589c-5.551-3.947-12.994-3.947-18.545 0l-197.705 140.589c-4.221 3.001-6.728 7.86-6.728 13.039 0 150.85 77.131 297.269 207.366 353.465 4.045 1.746 8.633 1.746 12.678 0 130.657-56.378 207.366-203.176 207.366-353.465 0-5.178-2.506-10.038-6.727-13.039zm-206.978 334.284c-114.396-53.107-179.155-183.72-181.627-313.045l181.627-129.156 181.627 129.155c-2.48 129.747-67.532 260.079-181.627 313.046z"/><path d="m241.334 151.222-23.52 47.656-52.592 7.642c-13.097 1.904-18.351 18.047-8.867 27.291l38.056 37.096-8.984 52.379c-2.236 13.043 11.492 23.031 23.215 16.867l47.04-24.73 47.04 24.73c11.722 6.162 25.452-3.821 23.215-16.867l-8.984-52.379 38.056-37.096c9.478-9.238 4.238-25.386-8.867-27.291l-52.592-7.642-23.52-47.656c-5.86-11.871-22.836-11.874-28.696 0zm27.242 69.361c2.33 4.723 6.836 7.995 12.047 8.753l28.834 4.189-20.864 20.338c-3.771 3.676-5.492 8.972-4.602 14.162l4.926 28.717-25.79-13.559c-4.658-2.45-10.23-2.451-14.891 0l-25.79 13.559 4.926-28.717c.891-5.19-.83-10.486-4.602-14.162l-20.864-20.338 28.834-4.189c5.211-.758 9.717-4.03 12.047-8.753l12.895-26.127z"/></g></svg>